HIERARCHY
ROOT Pelvis
{
	OFFSET 0.000000 0.000000 0.000000
	CHANNELS 6 Xposition Yposition Zposition Xrotation Yrotation Zrotation
	JOINT LeftUpLeg_virtual
	{
		OFFSET 0.000000 0.000000 0.000000
		CHANNELS 3 Xrotation Yrotation Zrotation
		JOINT LeftUpLeg
		{
			OFFSET 18.735201 -5.666702 -4.541200
			CHANNELS 3 Xrotation Yrotation Zrotation
			JOINT LeftLeg
			{
				OFFSET -0.021200 -31.938179 0.493100
				CHANNELS 3 Xrotation Yrotation Zrotation
				JOINT LeftFoot
				{
					OFFSET 0.021200 -31.938179 -4.336299
					CHANNELS 3 Xrotation Yrotation Zrotation
					JOINT LeftToeBase
					{
						OFFSET 0.943001 -26.722000 15.023500
						CHANNELS 3 Xrotation Yrotation Zrotation
						End Site
						{
							OFFSET 0 0 0
						}
					}
				}
			}
		}
	}
	JOINT RightUpLeg_virtual
	{
		OFFSET 0.000000 0.000000 0.000000
		CHANNELS 3 Xrotation Yrotation Zrotation
		JOINT RightUpLeg
		{
			OFFSET -18.735201 -5.666702 -4.541200
			CHANNELS 3 Xrotation Yrotation Zrotation
			JOINT RightLeg
			{
				OFFSET 0.018946 -31.938133 0.493100
				CHANNELS 3 Xrotation Yrotation Zrotation
				JOINT RightFoot
				{
					OFFSET -0.018946 -31.938126 -4.336299
					CHANNELS 3 Xrotation Yrotation Zrotation
					JOINT RightToeBase
					{
						OFFSET -0.943001 -26.722004 15.023500
						CHANNELS 3 Xrotation Yrotation Zrotation
						End Site
						{
							OFFSET 0 0 0
						}
					}
				}
			}
		}
	}
	JOINT Hips_virtual
	{
		OFFSET 0.000000 0.000000 0.000000
		CHANNELS 3 Xrotation Yrotation Zrotation
		JOINT Hips
		{
			OFFSET -0.000000 -0.000000 -0.000000
			CHANNELS 3 Xrotation Yrotation Zrotation
			JOINT Spine
			{
				OFFSET 0.000000 10.199997 -0.299500
				CHANNELS 3 Xrotation Yrotation Zrotation
				JOINT Spine1
				{
					OFFSET 0.000000 11.900002 -1.516600
					CHANNELS 3 Xrotation Yrotation Zrotation
					JOINT Spine2
					{
						OFFSET 0.000000 13.600006 -2.842500
						CHANNELS 3 Xrotation Yrotation Zrotation
						JOINT Neck_virtual
						{
							OFFSET 0.000000 0.000000 0.000000
							CHANNELS 3 Xrotation Yrotation Zrotation
							JOINT Neck
							{
								OFFSET 0.000000 9.624100 -2.890100
								CHANNELS 3 Xrotation Yrotation Zrotation
								JOINT Head
								{
									OFFSET 0.000000 14.068802 -1.351900
									CHANNELS 3 Xrotation Yrotation Zrotation
									End Site
									{
										OFFSET 0 0 0
									}
								}
							}
						}
						JOINT LeftShoulder_virtual
						{
							OFFSET 0.000000 0.000000 0.000000
							CHANNELS 3 Xrotation Yrotation Zrotation
							JOINT LeftShoulder
							{
								OFFSET 15.263000 10.923401 -0.547700
								CHANNELS 3 Xrotation Yrotation Zrotation
								JOINT LeftArm
								{
									OFFSET 25.438599 -2.830597 -13.032500
									CHANNELS 3 Xrotation Yrotation Zrotation
									JOINT LeftForeArm
									{
										OFFSET 29.960503 0.000000 0.000000
										CHANNELS 3 Xrotation Yrotation Zrotation
										JOINT LeftHand
										{
											OFFSET 27.849251 0.000000 0.000000
											CHANNELS 3 Xrotation Yrotation Zrotation
											End Site
											{
												OFFSET 0 0 0
											}
										}
									}
								}
							}
						}
						JOINT RightShoulder_virtual
						{
							OFFSET 0.000000 0.000000 0.000000
							CHANNELS 3 Xrotation Yrotation Zrotation
							JOINT RightShoulder
							{
								OFFSET -15.263000 10.923401 -0.547700
								CHANNELS 3 Xrotation Yrotation Zrotation
								JOINT RightArm
								{
									OFFSET -25.438599 -2.830597 -13.032500
									CHANNELS 3 Xrotation Yrotation Zrotation
									JOINT RightForeArm
									{
										OFFSET -29.960503 0.000000 0.000000
										CHANNELS 3 Xrotation Yrotation Zrotation
										JOINT RightHand
										{
											OFFSET -27.849251 0.000000 0.000000
											CHANNELS 3 Xrotation Yrotation Zrotation
											End Site
											{
												OFFSET 0 0 0
											}
										}
									}
								}
							}
						}
					}
				}
			}
		}
	}
}
MOTION
Frames: 13
Frame Time: 0.03333333
-10.659467 78.965759 20.206974 0.000000 0.000000 0.000000 21.545652 -48.654880 15.050665 -58.974476 12.643805 32.745447 43.905972 5.490257 3.172113 -15.098442 -14.860786 -25.059030 0.000000 0.000000 0.000000 21.154441 -48.116927 13.987398 -18.799488 14.901176 -33.238026 47.460205 0.391576 1.044810 -54.809058 -12.363903 23.540775 0.000000 0.000000 0.000000 21.449868 -48.593125 14.737361 -0.755521 0.354442 -0.077013 31.478317 -1.274673 7.006731 29.134011 -7.151934 6.144909 0.000000 0.000000 0.000000 23.368878 -4.929364 3.300656 -6.040584 -0.688209 1.939083 0.000000 0.000000 0.000000 27.233974 -6.033762 4.504329 -17.797036 -39.458044 -16.785712 -38.966069 17.455068 -29.063893 -14.883860 -70.507032 0.020018 0.000000 0.000000 0.000000 21.039899 -3.107831 2.450968 -18.010910 24.472906 22.594039 -20.542258 -41.636328 21.307501 157.955747 49.535284 -158.066574 0.000000 0.000000 0.000000 
-9.947546 78.812416 19.727819 0.000000 0.000000 0.000000 16.660541 -47.553823 11.095313 -58.683271 12.642391 33.969949 45.373896 4.290770 1.593049 -15.736672 -16.126353 -24.817089 0.000000 0.000000 0.000000 15.981002 -47.034855 10.032579 -14.136311 12.797429 -32.158013 45.651875 -0.240175 0.767309 -53.896913 -11.976826 25.119677 0.000000 0.000000 0.000000 16.388376 -47.186068 10.680232 -0.785413 0.286159 -0.075921 31.787888 -1.909916 7.520720 27.079229 -7.488407 4.882632 0.000000 0.000000 0.000000 20.933623 -5.021269 2.114279 -6.027228 -0.509293 2.169210 0.000000 0.000000 0.000000 25.781401 -6.060228 3.616701 -16.886657 -37.114514 -15.433096 -41.564997 16.949623 -28.154222 -15.506828 -65.189026 -0.733441 0.000000 0.000000 0.000000 18.670833 -3.242448 1.270987 -16.458627 24.150545 23.118551 -21.380287 -39.514400 24.851519 150.405246 53.447108 -152.893962 0.000000 0.000000 0.000000 
-9.333174 78.631935 19.182850 0.000000 0.000000 0.000000 12.449434 -46.244680 7.731696 -59.044028 12.892048 35.353127 47.040155 3.628878 -0.179388 -14.958280 -16.965935 -23.315489 0.000000 0.000000 0.000000 11.608678 -45.617744 6.789099 -10.282221 10.870573 -31.108827 43.825851 -1.022382 0.614446 -53.552078 -11.623134 25.716601 0.000000 0.000000 0.000000 12.063208 -45.441962 7.371348 -0.798850 0.214097 -0.051762 31.234954 -2.398861 8.064339 25.334799 -7.461720 3.925271 0.000000 0.000000 0.000000 19.015088 -4.696797 1.208296 -5.802109 -0.475502 2.080891 0.000000 0.000000 0.000000 24.591148 -5.794427 2.794828 -15.840494 -35.351905 -13.563929 -43.837927 16.730642 -29.112923 -16.551495 -61.115590 -1.865576 0.000000 0.000000 0.000000 16.514778 -2.931971 0.500402 -14.837121 23.966963 23.359495 -21.766706 -37.900477 28.495110 142.992196 57.118307 -147.204975 0.000000 0.000000 0.000000 
-8.834057 78.541420 18.545172 0.000000 0.000000 0.000000 9.285518 -45.239847 5.217618 -60.241469 13.376519 37.058844 49.067652 3.589090 -2.192682 -13.436730 -17.073062 -20.862270 0.000000 0.000000 0.000000 8.405804 -44.367495 4.446055 -7.596995 9.160735 -30.257817 42.029999 -1.923204 0.676392 -53.311594 -11.273678 25.408720 0.000000 0.000000 0.000000 8.867394 -43.855227 4.981697 -0.788774 0.158164 -0.019759 30.021209 -2.719809 8.406329 23.786279 -7.073808 3.369225 0.000000 0.000000 0.000000 17.398285 -3.995787 0.726247 -5.393532 -0.624038 1.744480 0.000000 0.000000 0.000000 23.515622 -5.239937 2.178295 -14.721414 -34.185425 -11.290967 -44.860891 16.691526 -31.762248 -17.915598 -58.107343 -3.200758 0.000000 0.000000 0.000000 14.559038 -2.175255 0.206210 -13.098430 23.913863 22.524145 -22.614000 -36.118177 31.661171 135.026939 60.984628 -140.297782 0.000000 0.000000 0.000000 
-8.391644 78.551552 18.018232 0.000000 0.000000 0.000000 7.281341 -44.718953 3.524753 -61.957589 13.891055 38.965833 51.172679 3.768293 -4.208416 -12.405994 -16.432477 -18.264124 0.000000 0.000000 0.000000 6.433521 -43.641822 2.914771 -6.417507 8.091023 -29.663631 40.507472 -2.633948 0.867239 -52.285675 -10.671984 24.803598 0.000000 0.000000 0.000000 6.814804 -42.896153 3.345748 -0.776119 0.130321 0.014832 28.419755 -2.806808 8.297955 22.235102 -6.306502 3.097327 0.000000 0.000000 0.000000 15.886528 -2.917090 0.588123 -4.817577 -1.004068 1.259856 0.000000 0.000000 0.000000 22.334437 -4.386081 1.697303 -13.560714 -33.381443 -8.746679 -44.285912 16.723469 -35.453931 -19.584160 -56.007602 -4.697111 0.000000 0.000000 0.000000 12.744172 -1.049018 0.247863 -11.415726 23.824922 20.303542 -24.011370 -34.336222 34.032015 125.740709 65.116701 -131.303529 0.000000 0.000000 0.000000 
-8.000656 78.622513 17.580294 0.000000 0.000000 0.000000 6.328326 -44.809958 2.486516 -63.489224 14.407357 40.926712 52.933286 3.873638 -5.940339 -12.616651 -15.268121 -16.302125 0.000000 0.000000 0.000000 5.537732 -43.664802 1.982440 -6.656755 7.968071 -29.291905 39.367175 -2.919439 1.164446 -49.809940 -9.690060 24.548381 0.000000 0.000000 0.000000 5.764850 -42.793632 2.233500 -0.755135 0.114845 0.038178 26.590104 -2.631813 7.632746 20.515440 -5.217583 2.907940 0.000000 0.000000 0.000000 14.254568 -1.559928 0.607795 -4.101213 -1.617739 0.710911 0.000000 0.000000 0.000000 20.866016 -3.292668 1.235102 -12.349823 -32.673146 -5.965141 -42.415540 16.571342 -39.405369 -21.537847 -54.624445 -6.392301 0.000000 0.000000 0.000000 11.001147 0.351423 0.423371 -9.962259 23.582898 16.947137 -25.381994 -32.960352 36.275944 113.968496 69.208442 -119.169493 0.000000 0.000000 0.000000 
-7.660640 78.760483 17.190329 0.000000 0.000000 0.000000 6.234718 -45.599641 1.979794 -64.303048 15.001940 42.822670 53.881607 3.659831 -7.173522 -14.170382 -14.049118 -15.667619 0.000000 0.000000 0.000000 5.458174 -44.460095 1.504545 -8.270341 8.693778 -28.935068 38.938161 -2.842606 1.557789 -46.160727 -8.435912 24.420033 0.000000 0.000000 0.000000 5.547389 -43.617069 1.548289 -0.737548 0.091075 0.041287 24.744875 -2.258522 6.523400 18.529542 -3.920002 2.664833 0.000000 0.000000 0.000000 12.454240 -0.055741 0.599432 -3.248803 -2.455876 0.193411 0.000000 0.000000 0.000000 19.038999 -2.002772 0.693311 -11.113882 -31.710191 -3.102404 -39.781330 16.248498 -42.727317 -23.604797 -53.905502 -8.257232 0.000000 0.000000 0.000000 9.248713 1.914746 0.567543 -8.940506 23.051547 13.205406 -26.023615 -32.481402 39.039736 98.382612 72.629261 -102.737383 0.000000 0.000000 0.000000 
-7.306517 78.929550 16.791279 0.000000 0.000000 0.000000 6.714916 -46.828614 1.873603 -64.496944 15.527670 44.714684 54.035529 3.078383 -7.908505 -16.055290 -12.966337 -15.955146 0.000000 0.000000 0.000000 5.873288 -45.802217 1.345437 -11.037521 9.995388 -28.412776 39.358122 -2.712448 2.046644 -42.584317 -7.236382 23.622568 0.000000 0.000000 0.000000 5.968232 -45.137848 1.271265 -0.733088 0.077201 0.045356 22.975392 -1.681210 5.170571 16.352994 -2.453666 2.333961 0.000000 0.000000 0.000000 10.616507 1.549149 0.460645 -2.268246 -3.460506 -0.270958 0.000000 0.000000 0.000000 16.942125 -0.530668 0.049919 -9.917571 -30.252318 -0.299713 -37.176733 15.571464 -44.990395 -25.681527 -53.471949 -10.219758 0.000000 0.000000 0.000000 7.541704 3.572537 0.601115 -8.490122 22.361129 9.782730 -25.628871 -33.121090 42.260532 78.853878 74.658585 -81.967707 0.000000 0.000000 0.000000 
-6.942208 79.092850 16.430511 0.000000 0.000000 0.000000 7.484283 -48.404202 2.076608 -64.533799 15.942695 46.755435 54.070827 2.398416 -8.414841 -16.952938 -11.890250 -16.268676 0.000000 0.000000 0.000000 6.669839 -47.501339 1.547637 -14.310779 11.482745 -27.616833 40.487480 -2.778177 2.643202 -40.184411 -6.500922 21.903553 0.000000 0.000000 0.000000 6.842351 -46.948442 1.477748 -0.722099 0.072638 0.054872 21.306697 -0.944106 3.847327 14.203606 -0.892497 1.977098 0.000000 0.000000 0.000000 8.846046 3.166475 0.211026 -1.283989 -4.544856 -0.682001 0.000000 0.000000 0.000000 14.662511 1.083239 -0.584011 -8.790142 -28.280187 2.366097 -34.975220 14.369378 -46.225433 -27.398950 -52.703177 -11.954539 0.000000 0.000000 0.000000 5.930716 5.256224 0.524829 -8.492175 21.659771 7.106499 -24.237316 -34.707255 45.712704 58.101769 74.778222 -59.804344 0.000000 0.000000 0.000000 
-6.637657 79.272011 16.045113 0.000000 0.000000 0.000000 8.436833 -50.045998 2.608440 -64.728794 16.223625 48.822134 54.167461 1.733931 -8.900009 -16.667888 -10.910720 -16.326959 0.000000 0.000000 0.000000 7.706482 -49.207090 2.127791 -17.819525 13.005775 -26.739262 42.278611 -3.006092 3.285904 -39.014204 -6.257134 19.776429 0.000000 0.000000 0.000000 8.063510 -48.647005 2.214870 -0.716935 0.091519 0.056421 19.768316 -0.134851 2.741417 12.309275 0.716793 1.669250 0.000000 0.000000 0.000000 7.318899 4.765418 -0.075883 -0.419390 -5.640412 -1.065893 0.000000 0.000000 0.000000 12.424877 2.827594 -1.108224 -7.841694 -25.887563 4.634515 -33.228051 12.362484 -46.768563 -28.290823 -50.924156 -13.011334 0.000000 0.000000 0.000000 4.518601 6.902052 0.383085 -8.831098 21.134332 5.350774 -22.026926 -36.926765 48.784657 40.692532 73.077519 -40.883771 0.000000 0.000000 0.000000 
-6.471533 79.429657 15.680462 0.000000 0.000000 0.000000 9.541254 -51.411537 3.476721 -65.057531 16.305243 50.594626 54.113222 1.091096 -9.389648 -15.619748 -10.121151 -16.108373 0.000000 0.000000 0.000000 8.939258 -50.529063 3.061798 -21.516262 14.534921 -26.128779 44.620834 -3.148581 3.927698 -38.225280 -6.116969 18.181417 0.000000 0.000000 0.000000 9.527608 -49.947855 3.400622 -0.706375 0.141265 0.046162 18.312135 0.724072 1.906582 10.816064 2.302193 1.422282 0.000000 0.000000 0.000000 6.061300 6.328452 -0.323319 0.190662 -6.648542 -1.459295 0.000000 0.000000 0.000000 10.408002 4.575977 -1.444134 -7.151446 -23.350805 6.311499 -31.868498 9.314711 -47.068486 -28.160540 -47.790134 -13.215687 0.000000 0.000000 0.000000 3.481521 8.449401 0.180022 -9.299039 20.989252 4.399192 -19.377312 -39.415058 51.189164 28.715389 70.187331 -27.402490 0.000000 0.000000 0.000000 
-6.510966 79.511330 15.448627 0.000000 0.000000 0.000000 10.751026 -52.300408 4.597940 -65.281398 16.333359 51.802415 53.862189 0.496987 -9.832877 -14.591825 -9.520880 -15.741149 0.000000 0.000000 0.000000 10.294912 -51.258377 4.254036 -25.168776 15.868684 -25.876541 47.271425 -3.029572 4.618055 -37.621850 -5.950782 17.645500 0.000000 0.000000 0.000000 10.983367 -50.762123 4.800841 -0.695227 0.182643 0.017653 16.947849 1.587216 1.367066 9.638929 3.764700 1.258568 0.000000 0.000000 0.000000 5.031384 7.771342 -0.455896 0.503732 -7.504611 -1.840381 0.000000 0.000000 0.000000 8.671863 6.185640 -1.611412 -6.739437 -20.894370 7.262972 -30.824046 5.413321 -47.360238 -27.320497 -43.886199 -12.876221 0.000000 0.000000 0.000000 2.817942 9.813717 -0.041255 -9.744548 21.195464 4.044226 -16.540287 -41.797653 53.024268 21.158802 66.890679 -18.493787 0.000000 0.000000 0.000000 
-6.679615 79.511971 15.241024 0.000000 0.000000 0.000000 11.973083 -52.630050 5.819305 -65.218949 16.472459 52.372917 53.096309 -0.058354 -10.170687 -14.411219 -9.214687 -15.565666 0.000000 0.000000 0.000000 11.558108 -51.457925 5.454611 -28.430428 16.695284 -26.095996 49.880636 -2.674942 5.451228 -37.433647 -5.810505 18.246423 0.000000 0.000000 0.000000 12.361681 -51.203459 6.229459 -0.704818 0.192910 -0.023744 15.705798 2.346850 1.101212 8.659000 5.011050 1.164810 0.000000 0.000000 0.000000 4.215403 9.030961 -0.460969 0.556583 -8.172458 -2.167276 0.000000 0.000000 0.000000 7.347330 7.546874 -1.717612 -6.561451 -18.720850 7.484964 -30.113023 1.030877 -47.719325 -26.198439 -39.968184 -12.365253 0.000000 0.000000 0.000000 2.436025 10.971971 -0.266836 -10.083617 21.815047 4.042948 -13.520641 -43.688516 54.589283 16.730425 63.986196 -12.927088 0.000000 0.000000 0.000000 
